{"glyphs":{":":{"x_min":0,"x_max":300,"ha":300,"o":"m 256 483 q 277 483 291 469 q 305 456 305 435 q 305 406 285 385 q 265 365 237 365 q 213 365 200 378 q 187 391 187 415 q 187 443 207 463 q 227 483 256 483 z m 171 106 q 192 106 206 93 q 220 79 220 58 q 220 29 200 9 q 180 -12 152 -12 q 128 -12 115 1 q 102 15 102 38 q 102 66 122 86 q 142 106 171 106 z"},"$":{"x_min":0,"x_max":620,"ha":620,"o":"m 473 790 l 521 790 l 494 671 q 527 664 548 653 q 568 642 595 618 l 626 667 l 661 667 l 666 464 l 618 459 q 607 510 589 541 q 571 572 547 592 q 523 612 484 626 l 428 387 q 521 350 554 326 q 587 302 604 268 q 622 234 622 195 q 622 146 593 102 q 563 57 508 29 q 452 1 387 1 q 370 1 341 3 l 313 -117 l 266 -117 l 296 12 q 249 27 222 44 q 195 61 167 90 l 132 12 l 97 12 l 109 252 l 155 252 q 166 199 187 161 q 208 122 236 97 q 265 73 306 58 l 368 329 q 273 365 237 398 q 187 445 187 508 q 187 551 214 592 q 241 633 294 657 q 346 682 414 682 q 425 682 447 681 z m 437 635 q 428 635 424 635 q 351 635 308 601 q 265 567 265 521 q 265 485 288 460 q 316 430 384 405 z m 351 48 q 372 45 382 45 q 424 45 464 65 q 505 85 524 115 q 543 145 543 180 q 543 208 532 231 q 521 253 498 270 q 475 286 412 311 z"},"?":{"x_min":0,"x_max":540,"ha":540,"o":"m 256 164 l 208 164 l 246 332 q 276 331 291 331 q 372 331 422 352 q 473 373 498 412 q 524 451 524 500 q 524 566 479 605 q 435 645 375 645 q 348 645 326 637 q 305 629 291 615 q 284 609 269 585 q 253 561 246 556 q 233 545 218 545 q 198 545 186 557 q 173 569 173 586 q 173 612 192 635 q 211 658 260 675 q 308 693 364 693 q 433 693 489 665 q 544 636 574 590 q 604 544 604 490 q 604 430 568 379 q 532 329 464 300 q 395 271 281 271 z m 216 106 q 238 106 251 93 q 265 79 265 58 q 265 29 245 9 q 225 -12 198 -12 q 174 -12 161 1 q 147 15 147 38 q 147 66 167 86 q 188 106 216 106 z"},"<":{"x_min":0,"x_max":600,"ha":600,"o":"m 581 88 l 141 284 l 141 333 l 581 528 l 581 458 l 230 308 l 581 158 z"},"'":{"x_min":0,"x_max":200,"ha":200,"o":"m 179 442 l 195 613 q 199 655 214 674 q 229 693 250 693 q 263 693 271 686 q 278 678 278 664 q 278 647 265 614 l 199 442 z"},"=":{"x_min":0,"x_max":600,"ha":600,"o":"m 607 447 l 607 387 l 131 387 l 131 447 z m 607 294 l 607 234 l 131 234 l 131 294 z"},"a":{"x_min":0,"x_max":620,"ha":620,"o":"m 542 471 l 603 471 l 521 106 q 516 87 516 73 q 516 57 525 48 q 534 39 547 39 q 563 39 579 49 q 604 65 635 102 l 666 74 q 619 25 600 14 q 563 -8 524 -8 q 497 -8 478 1 q 459 11 448 30 q 438 49 438 70 q 438 85 447 129 q 409 74 375 45 q 340 16 305 2 q 269 -12 232 -12 q 168 -12 130 32 q 86 81 86 160 q 86 246 127 323 q 168 399 234 441 q 300 483 371 483 q 417 483 454 467 q 491 452 521 420 z m 504 380 q 479 405 446 419 q 414 433 383 433 q 334 433 288 400 q 242 367 209 294 q 175 221 175 147 q 175 114 186 90 q 197 65 215 53 q 234 41 255 41 q 295 41 340 73 q 396 113 440 195 q 485 276 504 380 z"},"L":{"x_min":0,"x_max":580,"ha":580,"o":"m 191 681 l 458 681 l 449 640 l 428 640 q 394 640 380 634 q 367 628 358 613 q 349 599 339 557 l 234 92 q 230 73 230 70 q 230 61 237 56 q 244 51 266 51 l 307 51 q 375 51 424 70 q 473 88 509 122 q 545 156 587 232 l 630 213 l 526 0 l 38 0 l 46 41 l 67 41 q 101 41 112 46 q 127 54 137 68 q 146 82 155 117 l 255 563 q 261 586 261 604 q 261 616 255 624 q 250 632 239 636 q 229 640 202 640 l 182 640 z"},"3":{"x_min":0,"x_max":620,"ha":620,"o":"m 249 499 l 204 509 q 216 565 250 606 q 283 647 333 670 q 383 693 445 693 q 506 693 552 672 q 597 651 620 616 q 644 581 644 539 q 644 500 625 467 q 606 433 570 407 q 533 381 471 364 q 509 354 529 341 q 560 322 578 287 q 597 253 597 212 q 597 157 562 104 q 526 51 462 20 q 398 -12 317 -12 q 249 -12 195 11 q 142 35 108 77 q 82 110 82 140 q 82 166 94 179 q 106 193 127 193 q 145 193 157 182 q 168 170 174 140 q 181 102 198 80 q 215 58 246 45 q 276 32 315 32 q 397 32 452 85 q 507 138 507 211 q 507 256 484 288 q 461 319 429 331 q 396 342 341 342 l 312 342 l 321 390 l 355 390 q 424 390 466 407 q 507 424 530 456 q 552 487 552 521 q 552 551 536 577 q 520 603 490 618 q 459 632 418 632 q 377 632 343 617 q 309 601 286 574 q 264 547 249 499 z"},";":{"x_min":0,"x_max":300,"ha":300,"o":"m 255 483 q 277 483 291 469 q 304 456 304 435 q 304 406 284 385 q 264 365 237 365 q 213 365 200 378 q 187 391 187 415 q 187 443 207 463 q 227 483 255 483 z m 56 -171 l 36 -138 q 106 -96 135 -63 q 163 -30 169 3 q 155 0 147 0 q 127 0 115 13 q 102 25 102 46 q 102 70 120 88 q 139 106 164 106 q 191 106 210 85 q 229 63 229 31 q 229 -80 56 -171 z"},"J":{"x_min":0,"x_max":560,"ha":560,"o":"m 438 681 l 707 681 l 698 640 l 671 640 q 640 640 625 632 q 610 624 602 609 q 597 598 589 566 l 509 208 q 494 144 474 110 q 454 76 418 48 q 382 20 335 4 q 288 -12 238 -12 q 177 -12 131 10 q 84 33 61 70 q 37 107 37 152 q 37 194 58 221 q 79 249 105 249 q 124 249 136 236 q 148 224 148 205 q 148 188 133 164 q 118 140 118 126 q 118 93 150 66 q 182 39 234 39 q 276 39 309 53 q 342 67 367 94 q 392 121 407 160 q 417 186 426 228 l 504 566 q 509 588 509 603 q 509 616 502 625 q 495 634 484 637 q 473 640 429 640 z"},"V":{"x_min":0,"x_max":680,"ha":680,"o":"m 156 681 l 405 681 l 396 640 l 372 640 q 343 640 332 635 q 321 631 315 621 q 308 610 308 595 q 308 580 311 559 l 380 79 l 650 565 q 668 598 668 614 q 668 628 655 635 q 646 640 618 640 l 593 640 l 603 681 l 833 681 l 823 640 q 792 640 778 635 q 765 630 753 618 q 742 606 721 571 l 392 0 l 311 0 l 222 559 q 215 602 208 615 q 201 629 190 634 q 179 640 146 640 z"},"\"":{"x_min":0,"x_max":360,"ha":360,"o":"m 338 442 l 354 613 q 358 655 374 674 q 389 693 409 693 q 422 693 430 686 q 437 678 437 664 q 437 647 425 614 l 358 442 z m 179 442 l 196 613 q 200 655 215 674 q 230 693 250 693 q 264 693 271 686 q 278 678 278 664 q 278 647 266 614 l 199 442 z"},"7":{"x_min":0,"x_max":620,"ha":620,"o":"m 264 703 l 296 703 l 296 681 l 731 681 l 722 640 q 642 569 553 453 q 464 338 402 220 q 339 102 310 0 l 210 0 q 233 72 275 153 q 317 235 369 308 q 420 380 519 491 q 588 569 637 607 l 341 607 q 292 607 276 601 q 255 590 236 549 l 213 497 l 175 514 z"},"S":{"x_min":0,"x_max":640,"ha":640,"o":"m 658 681 l 694 681 l 698 465 l 650 465 q 631 538 575 589 q 518 639 433 639 q 386 639 348 622 q 310 605 291 577 q 271 550 271 523 q 271 500 283 479 q 296 459 326 440 q 355 422 430 396 q 538 358 578 332 q 618 306 637 272 q 657 239 657 200 q 657 147 623 97 q 589 47 528 18 q 468 -12 387 -12 q 322 -12 274 6 q 226 24 173 70 l 132 0 l 100 0 l 111 250 l 157 250 q 175 151 237 96 q 298 42 386 42 q 467 42 524 86 q 570 124 570 178 q 570 210 552 235 q 534 260 488 283 q 463 295 366 329 q 274 362 239 396 q 190 446 190 507 q 190 553 220 596 q 250 639 309 666 q 367 693 439 693 q 493 693 537 677 q 582 662 625 628 z"},"}":{"x_min":0,"x_max":380,"ha":380,"o":"m 196 675 l 200 694 q 247 688 278 667 q 308 647 326 613 q 344 580 344 542 q 344 498 312 429 q 293 388 285 362 q 281 349 281 336 q 281 303 304 279 q 327 255 370 250 l 365 229 q 320 224 284 199 q 249 174 234 137 q 225 114 225 49 q 225 -16 207 -59 q 189 -103 150 -140 q 110 -178 61 -200 q 31 -212 -10 -218 l -6 -199 q 45 -187 78 -162 q 112 -138 127 -97 q 137 -71 137 -6 q 137 62 156 104 q 175 145 219 181 q 262 217 327 238 q 274 260 247 297 q 219 334 219 378 q 219 416 250 483 q 270 525 278 553 q 282 566 282 582 q 282 617 262 640 q 243 663 196 675 z"},"Z":{"x_min":0,"x_max":580,"ha":580,"o":"m 221 681 l 687 681 l 677 640 l 153 53 l 251 53 q 347 53 399 69 q 451 85 494 122 q 537 158 587 236 l 628 213 l 509 0 l 21 0 l 30 41 l 555 626 l 441 626 q 363 626 318 612 q 272 598 238 569 q 204 540 159 471 l 118 495 z"},"x":{"x_min":0,"x_max":540,"ha":540,"o":"m 278 483 l 346 291 q 404 395 466 445 q 512 483 556 483 q 582 483 596 470 q 610 458 610 439 q 610 421 597 410 q 584 399 561 399 q 555 399 545 400 q 531 401 522 401 q 496 401 474 388 q 451 375 426 341 l 362 244 l 400 134 q 419 79 436 61 q 453 43 471 43 q 487 43 502 52 q 513 59 558 103 l 589 77 q 550 29 518 10 q 485 -8 450 -8 q 408 -8 381 14 q 354 36 333 96 l 293 209 q 219 74 172 33 q 124 -8 78 -8 q 55 -8 41 5 q 26 18 26 36 q 26 52 39 65 q 53 77 72 77 q 79 77 94 75 q 105 73 113 73 q 127 73 140 78 q 153 83 170 99 q 187 115 214 156 q 225 172 275 259 l 225 402 l 135 402 l 145 442 q 174 448 196 457 q 218 466 244 483 z"},")":{"x_min":0,"x_max":280,"ha":280,"o":"m 29 -232 l 0 -203 q 62 -141 97 -67 q 144 31 188 225 q 231 419 231 523 q 231 566 219 608 q 208 650 186 686 l 218 710 q 257 662 275 602 q 298 527 298 442 q 298 350 273 229 q 249 108 210 17 q 172 -75 127 -134 q 83 -193 29 -232 z"},"&":{"x_min":0,"x_max":820,"ha":820,"o":"m 606 430 l 835 430 l 826 389 l 803 389 q 766 389 750 378 q 733 368 720 335 q 692 269 658 216 q 623 163 592 135 q 612 81 632 61 q 658 33 693 33 q 723 33 744 52 q 765 72 765 99 q 765 110 762 118 q 761 122 748 142 q 735 161 734 166 q 731 174 731 186 q 731 205 744 218 q 757 231 777 231 q 800 231 816 209 q 833 188 833 149 q 833 104 812 67 q 792 30 755 9 q 719 -12 675 -12 q 625 -12 587 15 q 558 35 534 77 q 476 29 423 9 q 371 -12 313 -12 q 249 -12 199 14 q 150 40 123 84 q 95 129 95 182 q 95 259 151 318 q 216 387 343 422 q 313 437 298 453 q 283 470 274 492 q 266 514 266 539 q 266 579 288 614 q 310 648 355 670 q 399 693 449 693 q 493 693 527 676 q 561 659 579 629 q 596 599 596 562 q 596 521 572 485 q 548 450 507 428 q 479 414 435 408 q 479 391 502 369 q 525 347 546 302 q 567 256 581 189 q 631 254 658 309 q 675 344 675 361 q 675 371 671 376 q 667 381 656 386 q 649 389 630 389 l 596 389 z m 450 646 q 420 646 394 631 q 368 615 353 587 q 338 559 338 525 q 338 488 360 466 q 381 444 417 444 q 467 444 497 485 q 526 525 526 566 q 526 589 516 608 q 506 627 489 637 q 472 646 450 646 z m 380 395 q 286 364 238 314 q 185 260 185 192 q 185 150 205 115 q 225 81 260 61 q 294 42 339 42 q 378 42 419 58 q 460 75 517 117 q 507 146 494 196 q 470 288 447 328 q 424 368 380 395 z"},"_":{"x_min":0,"x_max":500,"ha":500,"o":"m -6 -75 l 506 -75 l 506 -125 l -6 -125 z"},"v":{"x_min":0,"x_max":540,"ha":540,"o":"m 286 483 l 207 128 q 201 103 201 89 q 201 68 216 54 q 230 40 253 40 q 289 40 321 58 q 367 84 413 137 q 459 190 487 250 q 515 310 515 343 q 515 355 510 370 q 506 384 493 407 q 483 422 481 427 q 479 435 479 443 q 479 464 491 478 q 503 491 523 491 q 550 491 568 468 q 585 444 585 397 q 585 339 551 262 q 517 185 456 115 q 395 46 340 17 q 285 -12 230 -12 q 181 -12 151 15 q 122 41 122 79 q 122 102 128 132 l 189 401 l 99 401 l 109 442 q 146 446 178 455 q 210 464 250 483 z"},"O":{"x_min":0,"x_max":760,"ha":760,"o":"m 520 693 q 644 693 724 618 q 808 538 808 404 q 808 293 751 196 q 695 99 598 42 q 505 -12 392 -12 q 306 -12 243 24 q 180 60 143 124 q 106 188 106 271 q 106 382 162 481 q 219 580 314 636 q 410 693 520 693 z m 522 641 q 439 641 369 595 q 299 549 252 455 q 206 361 206 258 q 206 192 230 141 q 255 90 298 64 q 341 39 396 39 q 475 39 545 85 q 615 132 662 227 q 709 322 709 426 q 709 490 684 539 q 659 588 617 615 q 574 641 522 641 z"},"(":{"x_min":0,"x_max":280,"ha":280,"o":"m 375 710 l 404 681 q 342 618 307 544 q 260 446 217 252 q 173 58 173 -45 q 173 -89 185 -131 q 196 -172 218 -208 l 186 -232 q 146 -184 128 -125 q 105 -50 105 36 q 105 127 131 248 q 156 369 194 461 q 232 552 277 612 q 321 671 375 710 z"},"C":{"x_min":0,"x_max":720,"ha":720,"o":"m 737 678 l 774 678 l 783 452 l 737 446 q 716 523 689 561 q 662 599 621 619 q 581 639 530 639 q 452 639 382 593 q 312 547 267 458 q 221 369 221 271 q 221 206 249 154 q 276 103 324 74 q 373 46 431 46 q 474 46 520 60 q 566 74 604 97 q 642 121 719 190 l 749 163 q 672 75 578 28 q 500 -12 410 -12 q 311 -12 254 24 q 197 61 158 120 q 119 179 119 273 q 119 384 175 482 q 230 580 325 636 q 419 693 526 693 q 569 693 610 682 q 642 674 667 660 q 685 649 708 627 z"},"W":{"x_min":0,"x_max":960,"ha":960,"o":"m 164 681 l 404 681 l 395 640 l 377 640 q 348 640 337 635 q 325 630 319 620 q 312 609 312 592 q 312 587 313 574 l 351 97 l 572 524 l 567 574 q 564 606 558 617 q 552 628 540 634 q 527 640 499 640 l 508 681 l 746 681 l 736 640 l 716 640 q 688 640 678 635 q 667 631 662 621 q 656 611 656 593 q 656 585 656 574 l 694 90 l 935 574 q 948 601 948 612 q 948 621 943 628 q 938 634 928 637 q 919 640 891 640 l 875 640 l 883 681 l 1105 681 l 1096 640 q 1066 640 1052 635 q 1038 630 1030 621 q 1019 608 1000 574 l 705 0 l 621 0 l 581 426 l 361 0 l 279 0 l 224 574 q 221 605 215 617 q 208 628 196 634 q 183 640 154 640 z"},"A":{"x_min":0,"x_max":700,"ha":700,"o":"m 450 681 l 533 681 l 634 112 q 640 77 647 64 q 655 51 666 46 q 677 42 709 41 l 700 0 l 450 0 l 461 41 l 489 41 q 522 41 535 52 q 548 63 548 83 q 548 94 545 116 l 521 253 l 261 253 l 173 100 q 162 81 162 67 q 162 55 172 48 q 182 41 214 41 l 237 41 l 228 0 l 0 0 l 10 41 q 42 42 56 47 q 70 52 81 63 q 92 75 116 116 z m 514 301 l 463 604 l 289 301 z"},"f":{"x_min":0,"x_max":340,"ha":340,"o":"m 417 471 l 406 420 l 296 420 l 203 4 q 190 -53 166 -110 q 142 -167 97 -199 q 52 -230 -1 -230 q -44 -230 -70 -211 q -96 -192 -96 -169 q -96 -153 -84 -142 q -73 -130 -56 -130 q -37 -130 -13 -152 q 3 -167 11 -171 q 20 -176 28 -176 q 56 -176 77 -150 q 98 -125 116 -42 l 217 420 l 126 420 l 137 471 l 229 471 l 239 520 q 262 624 313 670 q 365 716 444 716 q 498 716 528 694 q 559 671 559 644 q 559 628 546 616 q 534 604 517 604 q 505 604 496 609 q 484 616 468 633 q 451 654 439 661 q 427 667 415 667 q 398 667 383 658 q 368 649 357 632 q 346 614 333 576 q 326 558 319 525 l 307 471 z"},"Q":{"x_min":0,"x_max":780,"ha":780,"o":"m 337 -6 q 242 10 179 87 q 116 164 116 271 q 116 382 172 481 q 229 580 323 636 q 418 693 527 693 q 614 693 680 657 q 745 621 781 555 q 818 490 818 404 q 818 298 765 204 q 713 109 624 52 q 535 -4 426 -11 q 421 -34 421 -48 q 421 -78 444 -99 q 468 -120 507 -120 q 566 -120 636 -84 l 656 -120 q 611 -148 562 -164 q 512 -179 471 -179 q 432 -179 398 -162 q 364 -145 347 -117 q 331 -89 331 -52 q 331 -31 337 -6 z m 532 641 q 449 641 379 595 q 309 549 262 455 q 215 361 215 258 q 215 192 240 141 q 265 90 308 64 q 351 39 406 39 q 485 39 555 85 q 625 132 672 227 q 719 322 719 426 q 719 490 694 539 q 669 588 626 615 q 584 641 532 641 z"},"w":{"x_min":0,"x_max":880,"ha":880,"o":"m 288 481 l 210 133 q 204 105 204 86 q 204 65 219 53 q 233 40 259 40 q 278 40 299 47 q 320 54 347 72 q 374 91 399 119 q 424 148 446 187 q 464 216 476 255 l 514 378 l 535 471 l 614 471 l 540 137 q 536 118 536 104 q 536 76 553 58 q 570 40 598 40 q 634 40 676 62 q 717 83 757 131 q 798 178 823 237 q 849 297 849 336 q 849 356 842 378 q 839 389 829 407 q 819 423 818 427 q 815 434 815 443 q 815 465 828 479 q 841 492 861 492 q 887 492 905 469 q 922 445 922 397 q 922 335 889 255 q 856 175 801 110 q 745 45 689 17 q 634 -12 582 -12 q 524 -12 490 21 q 457 53 457 107 q 457 118 461 137 q 413 63 356 26 q 300 -12 235 -12 q 184 -12 154 15 q 124 42 124 78 q 124 97 131 133 l 191 400 l 100 400 l 109 441 q 147 444 176 452 q 204 460 250 481 z"},"-":{"x_min":0,"x_max":320,"ha":320,"o":"m 96 275 l 351 275 l 338 221 l 83 221 z"},"E":{"x_min":0,"x_max":680,"ha":680,"o":"m 193 681 l 684 681 l 740 501 l 695 487 q 675 542 649 571 q 623 600 592 611 q 550 626 482 626 l 356 626 l 300 376 l 383 376 q 435 376 460 387 q 485 398 502 422 q 520 446 529 492 l 576 492 l 513 215 l 466 215 q 473 253 473 268 q 473 287 462 302 q 452 317 434 324 q 417 330 370 330 l 290 330 l 235 91 q 231 75 231 70 q 231 60 239 55 q 245 51 270 51 l 378 51 q 458 51 509 68 q 560 85 595 118 q 630 151 676 232 l 718 215 l 615 0 l 39 0 l 48 41 q 98 42 112 46 q 126 51 134 62 q 147 80 154 113 l 257 565 q 263 590 263 600 q 263 623 248 631 q 233 640 199 640 l 184 640 z"},"s":{"x_min":0,"x_max":540,"ha":540,"o":"m 308 295 l 395 265 q 408 260 442 244 q 477 228 491 215 q 509 199 519 176 q 530 154 530 131 q 530 95 506 62 q 481 28 435 8 q 388 -12 320 -12 q 246 -12 187 10 q 127 32 101 62 q 74 93 74 118 q 74 134 85 146 q 97 157 114 157 q 125 157 134 153 q 143 149 152 139 q 159 132 173 108 q 186 86 189 82 q 201 69 220 57 q 239 44 262 38 q 286 32 318 32 q 364 32 394 44 q 425 55 440 74 q 455 93 455 113 q 455 140 427 162 q 400 184 348 199 q 343 201 338 203 l 270 227 q 208 249 180 281 q 152 312 152 351 q 152 384 175 415 q 197 446 241 465 q 285 483 349 483 q 448 483 511 443 q 559 414 559 376 q 559 359 547 348 q 536 336 520 336 q 504 336 490 347 q 480 355 461 382 q 441 410 413 423 q 385 437 344 437 q 289 437 258 416 q 228 394 228 367 q 228 346 244 328 q 261 311 308 295 z"},">":{"x_min":0,"x_max":600,"ha":600,"o":"m 159 528 l 599 333 l 599 284 l 159 88 l 159 158 l 509 308 l 159 458 z"},"l":{"x_min":0,"x_max":280,"ha":280,"o":"m 329 716 l 194 118 q 187 85 187 74 q 187 58 195 49 q 203 40 217 40 q 234 40 249 49 q 271 63 305 102 l 336 75 q 267 -8 194 -8 q 155 -8 132 14 q 108 36 108 69 q 108 91 114 115 l 230 634 l 141 634 l 149 675 q 200 683 229 692 q 259 701 291 716 z"},"8":{"x_min":0,"x_max":620,"ha":620,"o":"m 478 362 q 537 329 562 305 q 588 282 599 255 q 610 228 610 191 q 610 138 579 92 q 547 45 486 17 q 425 -12 344 -12 q 268 -12 215 12 q 163 35 135 75 q 107 115 107 160 q 107 198 123 229 q 139 260 180 293 q 221 326 304 365 q 269 384 249 405 q 229 426 219 453 q 208 480 208 510 q 208 559 235 600 q 263 641 318 667 q 373 693 441 693 q 502 693 549 672 q 596 651 620 617 q 644 584 644 548 q 644 516 629 486 q 614 456 584 430 q 555 404 478 362 z m 438 381 q 508 431 528 450 q 547 470 557 491 q 567 513 567 539 q 567 584 531 615 q 496 645 434 645 q 368 645 327 609 q 285 573 285 526 q 285 506 292 489 q 298 472 312 456 q 327 439 350 426 z m 344 342 q 264 294 236 271 q 209 247 196 220 q 183 193 183 163 q 183 109 228 71 q 272 33 347 33 q 402 33 445 53 q 487 73 509 107 q 531 140 531 177 q 531 216 507 246 q 482 275 411 310 z"},"\\":{"x_min":0,"x_max":600,"ha":600,"o":"m 136 715 l 621 -121 l 555 -121 l 70 715 z"},"e":{"x_min":0,"x_max":540,"ha":540,"o":"m 509 129 l 537 98 q 475 43 409 16 q 342 -12 279 -12 q 193 -12 141 41 q 89 93 89 180 q 89 258 132 328 q 175 398 253 440 q 330 483 418 483 q 489 483 528 451 q 568 418 568 375 q 568 349 551 320 q 533 292 492 267 q 451 243 374 227 q 296 210 183 205 q 180 186 180 176 q 180 137 197 107 q 213 77 243 59 q 273 41 306 41 q 347 41 403 63 q 458 86 509 129 z m 188 243 q 299 255 349 267 q 429 286 458 313 q 488 340 488 373 q 488 400 466 418 q 444 437 404 437 q 362 437 315 412 q 269 387 236 344 q 203 301 188 243 z"},"b":{"x_min":0,"x_max":600,"ha":600,"o":"m 339 716 l 254 334 q 279 375 302 398 q 343 441 386 462 q 428 483 471 483 q 534 483 576 438 q 619 393 619 323 q 619 236 575 155 q 532 73 466 31 q 400 -12 327 -12 q 287 -12 253 1 q 220 15 183 47 l 161 0 l 100 0 l 242 634 l 151 634 l 161 675 q 235 682 301 716 z m 200 87 q 226 62 254 49 q 283 36 312 36 q 362 36 410 70 q 458 104 493 177 q 528 249 528 318 q 528 353 516 381 q 508 401 489 413 q 469 426 447 426 q 400 426 354 387 q 291 335 248 243 q 220 183 200 87 z"},"%":{"x_min":0,"x_max":800,"ha":800,"o":"m 336 693 q 389 693 425 661 q 460 628 460 570 q 460 506 429 446 q 397 386 352 356 q 306 326 252 326 q 196 326 162 360 q 128 395 128 450 q 128 515 158 573 q 188 631 236 662 q 285 693 336 693 z m 333 660 q 300 660 270 636 q 239 612 214 552 q 189 492 189 436 q 189 400 208 379 q 226 358 255 358 q 288 358 318 383 q 349 407 373 465 q 397 523 397 583 q 397 620 380 640 q 362 660 333 660 z m 797 693 l 209 -6 l 157 -6 l 745 693 z m 703 360 q 755 360 791 328 q 826 296 826 238 q 826 174 795 114 q 764 54 718 24 q 672 -6 618 -6 q 562 -6 528 28 q 494 62 494 118 q 494 183 524 241 q 554 299 603 330 q 651 360 703 360 z m 700 328 q 667 328 636 304 q 606 280 581 219 q 555 159 555 104 q 555 68 574 47 q 592 25 622 25 q 654 25 685 50 q 715 75 739 133 q 763 191 763 251 q 763 288 746 308 q 729 328 700 328 z"},"m":{"x_min":0,"x_max":880,"ha":880,"o":"m 197 401 l 106 401 l 117 442 q 165 449 195 458 q 225 467 254 483 l 290 483 l 266 370 q 291 410 319 434 q 347 458 381 470 q 415 483 450 483 q 497 483 526 456 q 556 428 556 392 q 556 386 555 374 q 579 412 607 435 q 635 458 667 471 q 700 483 733 483 q 780 483 811 455 q 842 426 842 390 q 842 370 835 339 l 784 117 q 777 84 777 70 q 777 58 786 49 q 794 40 808 40 q 827 40 843 51 q 858 62 896 103 l 927 76 q 890 30 855 11 q 821 -8 785 -8 q 746 -8 722 14 q 698 37 698 68 q 698 88 705 117 l 755 339 q 762 367 762 381 q 762 402 747 416 q 732 429 711 429 q 684 429 659 416 q 624 398 593 360 q 562 323 544 274 q 519 206 500 116 q 499 108 495 95 l 472 0 l 394 0 l 472 339 q 476 358 476 382 q 476 403 462 416 q 448 429 426 429 q 396 429 363 409 q 330 390 302 352 q 273 313 251 252 q 229 190 218 142 l 187 0 l 106 0 z"},"#":{"x_min":0,"x_max":600,"ha":600,"o":"m 518 273 l 518 216 l 411 216 l 379 0 l 321 0 l 353 216 l 220 216 l 189 0 l 130 0 l 163 216 l 56 216 l 56 273 l 171 273 l 189 405 l 83 405 l 83 462 l 200 462 l 230 666 l 287 666 l 257 462 l 390 462 l 419 666 l 477 666 l 447 462 l 543 462 l 543 405 l 439 405 l 419 273 z m 381 405 l 248 405 l 229 273 l 361 273 z"},",":{"x_min":0,"x_max":300,"ha":300,"o":"m 60 -171 l 38 -138 q 84 -112 115 -86 q 145 -60 159 -38 q 167 -25 172 0 q 158 -2 149 -2 q 129 -2 115 13 q 101 28 101 53 q 101 78 117 94 q 133 110 158 110 q 188 110 210 87 q 231 64 231 28 q 231 -5 215 -37 q 199 -70 163 -103 q 127 -136 60 -171 z"},"n":{"x_min":0,"x_max":620,"ha":620,"o":"m 290 483 l 255 330 q 279 370 301 393 q 344 438 388 461 q 433 483 474 483 q 507 483 531 470 q 556 458 570 435 q 585 412 585 389 q 585 369 575 325 l 528 117 q 521 87 521 75 q 521 60 531 51 q 540 42 553 42 q 587 42 641 106 l 671 78 q 628 28 596 10 q 564 -8 530 -8 q 503 -8 484 2 q 465 12 454 31 q 442 51 442 72 q 442 91 449 122 l 497 338 q 503 366 503 381 q 503 402 490 415 q 476 427 453 427 q 426 427 397 413 q 368 399 335 366 q 303 333 276 285 q 249 237 226 170 q 215 139 202 78 l 186 0 l 105 0 l 195 402 l 105 402 l 115 442 q 162 449 188 457 q 214 465 255 483 z"},"h":{"x_min":0,"x_max":620,"ha":620,"o":"m 337 716 l 252 333 q 287 386 324 419 q 361 452 399 468 q 436 483 473 483 q 520 483 551 455 q 582 427 582 391 q 582 369 575 339 l 524 117 q 518 90 518 75 q 518 59 527 49 q 536 40 549 40 q 566 40 583 51 q 611 70 636 103 l 667 76 q 602 -8 524 -8 q 487 -8 463 14 q 439 37 439 67 q 439 88 445 117 l 497 347 q 501 368 501 384 q 501 403 487 416 q 472 429 451 429 q 418 429 385 409 q 337 380 296 324 q 255 269 231 203 q 208 138 196 84 l 178 0 l 99 0 l 241 634 l 150 634 l 159 675 q 234 683 301 716 z"},"z":{"x_min":0,"x_max":520,"ha":520,"o":"m 580 471 l 570 427 l 167 50 q 183 52 188 52 q 205 52 295 37 q 343 29 366 29 q 391 29 413 40 q 435 50 444 64 q 453 78 456 107 q 459 138 472 153 q 486 168 502 168 q 521 168 534 155 q 547 142 547 123 q 547 89 526 57 q 504 25 466 7 q 427 -12 376 -12 q 354 -12 331 -10 q 317 -8 266 0 q 210 8 192 10 q 167 12 141 12 q 87 12 35 -3 l 44 41 l 450 418 q 432 416 422 416 q 406 416 331 429 q 295 436 271 436 q 243 436 224 420 q 205 405 196 372 q 189 345 181 336 q 169 322 149 322 q 129 322 117 335 q 105 348 105 371 q 105 413 147 448 q 188 483 254 483 q 278 483 302 480 q 315 479 368 469 q 420 459 434 458 q 455 456 477 456 q 524 456 580 471 z"},"B":{"x_min":0,"x_max":720,"ha":720,"o":"m 195 681 l 538 681 q 640 681 685 665 q 730 648 755 613 q 780 579 780 534 q 780 487 755 448 q 729 408 684 384 q 650 366 592 354 q 638 344 661 332 q 694 314 713 283 q 732 253 732 214 q 732 181 719 148 q 706 116 680 87 q 654 59 618 39 q 583 20 537 11 q 474 0 409 0 l 41 0 l 50 41 q 94 42 105 44 q 124 48 134 60 q 148 78 156 113 l 258 565 q 264 592 264 604 q 264 614 258 624 q 251 633 241 636 q 231 640 204 640 l 185 640 z m 359 626 l 302 378 l 450 378 q 543 378 589 396 q 634 413 659 450 q 685 486 685 530 q 685 561 668 583 q 652 606 625 616 q 599 626 533 626 z m 291 331 l 238 94 q 234 79 234 72 q 234 61 246 56 q 251 52 277 52 l 373 52 q 379 52 442 56 q 489 59 503 62 q 531 67 556 82 q 582 96 600 116 q 618 137 628 163 q 638 188 638 215 q 638 249 618 276 q 598 304 562 317 q 527 331 451 331 z"},"K":{"x_min":0,"x_max":720,"ha":720,"o":"m 195 681 l 461 681 l 454 640 l 430 640 q 398 640 385 634 q 372 627 363 613 q 354 599 345 561 l 289 312 l 599 573 q 624 594 631 605 q 637 613 637 622 q 637 631 629 635 q 622 640 593 640 l 573 640 l 583 681 l 842 681 l 832 640 q 804 640 785 635 q 766 630 749 620 q 738 614 703 585 l 472 400 l 610 124 q 631 83 646 65 q 657 53 674 47 q 690 41 728 41 l 719 0 l 451 0 l 461 41 l 484 41 q 515 41 522 46 q 534 52 534 68 q 534 80 522 104 l 405 347 l 272 241 l 243 115 q 237 90 237 78 q 237 68 244 58 q 250 49 261 45 q 272 41 299 41 l 318 41 l 309 0 l 41 0 l 49 41 l 67 41 q 102 41 117 48 q 133 55 142 71 q 151 87 158 120 l 259 561 q 266 592 266 602 q 266 615 260 624 q 254 632 243 636 q 233 640 205 640 l 186 640 z"},"R":{"x_min":0,"x_max":700,"ha":700,"o":"m 195 681 l 533 681 q 621 681 664 664 q 707 646 731 610 q 755 575 755 527 q 755 472 723 424 q 691 376 639 352 q 586 329 476 325 l 603 102 q 613 83 631 63 q 642 51 658 46 q 674 41 708 41 l 700 0 l 562 0 l 387 325 l 292 325 l 243 109 q 238 91 238 80 q 238 67 246 56 q 254 46 265 43 q 272 41 319 41 l 309 0 l 40 0 l 50 41 l 64 41 q 102 41 116 47 q 130 53 139 66 q 148 78 156 115 l 258 561 q 265 587 265 602 q 265 623 250 631 q 236 640 203 640 l 185 640 z m 360 627 l 301 372 l 435 372 q 529 372 568 387 q 607 403 632 441 q 657 478 657 524 q 657 559 641 582 q 625 605 596 616 q 566 627 498 627 z"},"T":{"x_min":0,"x_max":600,"ha":600,"o":"m 697 703 l 723 500 l 676 491 q 666 548 646 579 q 626 610 598 624 q 570 637 512 637 q 496 637 490 633 q 484 628 480 610 l 367 110 q 363 91 363 79 q 363 66 370 56 q 377 47 390 44 q 402 41 443 41 l 434 0 l 165 0 l 175 41 q 209 42 226 44 q 243 46 252 53 q 261 60 267 72 q 276 92 279 104 l 391 603 q 395 618 395 625 q 395 631 389 634 q 384 637 367 637 q 318 637 283 622 q 249 606 212 568 q 189 543 151 485 l 111 508 l 216 703 l 250 703 l 250 681 l 652 681 l 661 703 z"},"P":{"x_min":0,"x_max":600,"ha":600,"o":"m 192 681 l 479 681 q 563 681 607 662 q 650 643 675 605 q 700 567 700 517 q 700 453 663 398 q 625 342 562 314 q 505 291 380 291 l 280 291 l 239 112 q 234 91 234 78 q 234 66 241 58 q 247 49 257 45 q 268 41 295 41 l 314 41 l 305 0 l 37 0 l 46 41 l 67 41 q 109 41 126 55 q 143 69 152 112 l 254 563 q 261 591 261 600 q 261 615 253 625 q 246 635 235 638 q 227 640 182 640 z m 356 626 l 291 341 l 366 341 q 456 341 488 352 q 537 366 570 411 q 603 456 603 514 q 603 556 582 583 q 561 610 526 620 q 504 626 440 626 z"},"|":{"x_min":0,"x_max":600,"ha":600,"o":"m 334 716 l 406 716 l 406 -230 l 334 -230 z"},"t":{"x_min":0,"x_max":340,"ha":340,"o":"m 316 636 l 279 471 l 409 471 l 397 421 l 268 421 l 203 134 q 196 103 196 85 q 196 65 208 53 q 219 41 237 41 q 250 41 264 46 q 281 53 299 66 q 308 74 344 111 l 377 84 q 330 28 293 8 q 257 -12 218 -12 q 174 -12 146 14 q 117 41 117 76 q 117 99 124 126 l 190 421 l 101 421 l 109 459 q 153 470 180 489 q 207 507 232 542 q 256 577 279 636 z"},"M":{"x_min":0,"x_max":860,"ha":860,"o":"m 188 681 l 400 681 l 457 136 l 759 681 l 977 681 l 967 640 l 941 640 q 916 640 903 635 q 891 631 883 622 q 875 614 869 598 q 861 574 859 564 l 755 104 q 752 89 752 81 q 752 60 767 49 q 777 41 808 41 l 833 41 l 823 0 l 554 0 l 563 41 l 585 41 q 617 41 630 47 q 644 52 653 65 q 663 79 668 104 l 786 625 l 438 0 l 391 0 l 326 630 l 207 104 q 204 87 204 80 q 204 68 209 58 q 213 50 223 46 q 233 41 247 41 l 285 41 l 276 0 l 35 0 l 45 41 l 73 41 q 109 41 125 56 q 142 70 151 112 l 256 575 q 259 585 259 602 q 259 620 248 630 q 237 640 218 640 l 207 640 l 179 640 z"},"g":{"x_min":0,"x_max":560,"ha":560,"o":"m 598 471 l 500 20 q 480 -70 443 -121 q 406 -172 347 -201 q 288 -230 214 -230 q 136 -230 89 -199 q 43 -167 43 -133 q 43 -116 55 -103 q 66 -90 82 -90 q 91 -90 100 -94 q 109 -98 120 -107 q 127 -114 144 -137 q 160 -159 167 -165 q 179 -174 196 -179 q 212 -184 231 -184 q 273 -184 311 -161 q 350 -139 377 -95 q 404 -51 422 32 l 443 131 q 421 94 400 72 q 359 30 314 9 q 270 -12 228 -12 q 165 -12 126 32 q 83 82 83 159 q 83 243 124 322 q 165 400 230 441 q 295 483 366 483 q 396 483 426 475 q 456 467 479 452 q 497 441 515 419 l 538 471 z m 500 381 q 471 408 442 421 q 413 434 382 434 q 334 434 286 399 q 238 365 205 293 q 171 221 171 146 q 171 97 194 69 q 216 42 248 42 q 289 42 329 69 q 388 112 430 186 q 473 260 500 381 z"},"j":{"x_min":0,"x_max":280,"ha":280,"o":"m 313 716 q 334 716 348 702 q 362 688 362 666 q 362 641 344 622 q 327 604 303 604 q 281 604 266 619 q 251 634 251 655 q 251 680 270 698 q 288 716 313 716 z m 313 483 l 198 -32 q 193 -53 177 -96 q 161 -140 138 -165 q 106 -200 70 -215 q 35 -230 -14 -230 q -60 -230 -92 -209 q -124 -187 -124 -160 q -124 -142 -112 -130 q -101 -119 -83 -119 q -70 -119 -59 -125 q -49 -131 -35 -148 q -18 -169 -6 -176 q 6 -183 20 -183 q 38 -183 55 -171 q 72 -160 85 -136 q 98 -111 109 -61 l 214 402 l 125 402 l 133 442 q 188 450 213 457 q 237 464 278 483 z"},"i":{"x_min":0,"x_max":280,"ha":280,"o":"m 283 716 q 304 716 318 702 q 332 688 332 666 q 332 641 314 622 q 296 604 272 604 q 251 604 236 619 q 221 634 221 655 q 221 680 239 698 q 258 716 283 716 z m 288 483 l 193 108 q 187 85 187 72 q 187 57 195 48 q 204 39 217 39 q 233 39 248 48 q 271 63 306 102 l 337 74 q 308 35 269 13 q 230 -8 195 -8 q 158 -8 133 15 q 108 38 108 69 q 108 90 116 123 l 187 403 l 97 403 l 106 444 q 143 446 174 454 q 205 462 250 483 z"},"y":{"x_min":0,"x_max":600,"ha":600,"o":"m 536 471 l 615 471 l 516 24 q 505 -22 500 -39 q 485 -82 463 -115 q 441 -148 405 -176 q 369 -203 326 -217 q 282 -230 230 -230 q 152 -230 106 -198 q 60 -167 60 -131 q 60 -116 72 -103 q 84 -90 98 -90 q 114 -90 128 -100 q 143 -110 161 -136 q 176 -159 191 -168 q 216 -183 245 -183 q 291 -183 331 -158 q 372 -133 396 -90 q 419 -47 435 24 l 461 134 q 429 84 393 52 q 356 20 317 4 q 277 -12 241 -12 q 186 -12 156 17 q 126 46 126 82 q 126 107 132 134 l 192 401 l 102 401 l 112 443 q 148 446 176 453 q 204 461 252 483 l 289 483 l 210 134 q 205 106 205 91 q 205 70 220 55 q 236 41 258 41 q 293 41 326 60 q 373 87 410 134 q 447 181 476 252 q 499 306 516 382 z"},"@":{"x_min":0,"x_max":780,"ha":780,"o":"m 717 468 l 660 273 l 627 156 q 620 129 617 109 q 615 96 615 88 q 615 72 625 61 q 635 50 652 50 q 691 50 740 89 q 790 127 824 205 q 858 283 858 369 q 858 454 818 523 q 778 592 706 631 q 634 669 542 669 q 429 669 335 611 q 241 553 182 442 q 123 332 123 204 q 123 90 172 1 q 221 -88 308 -137 q 396 -186 505 -186 q 592 -186 667 -155 q 743 -124 802 -64 q 860 -4 898 84 l 926 84 q 910 34 890 0 q 853 -62 794 -112 q 734 -162 659 -189 q 584 -216 503 -216 q 382 -216 285 -160 q 188 -104 133 -5 q 77 93 77 217 q 77 350 139 459 q 200 569 307 632 q 415 694 539 694 q 644 694 722 653 q 800 611 844 533 q 888 456 888 360 q 888 261 844 175 q 800 88 742 52 q 683 15 619 15 q 582 15 562 33 q 543 50 543 83 q 543 109 552 154 q 483 70 439 42 q 396 15 360 15 q 336 15 317 28 q 297 42 284 70 q 271 97 271 129 q 271 195 312 277 q 354 360 421 415 q 488 471 541 471 q 562 471 580 462 q 599 454 609 441 q 619 428 625 403 l 641 457 z m 546 448 q 524 448 497 430 q 469 413 434 362 q 398 311 373 246 q 349 182 349 145 q 349 113 366 94 q 383 74 405 74 q 433 74 469 98 q 504 123 546 183 q 567 214 580 251 q 607 329 607 376 q 607 409 589 428 q 572 448 546 448 z"},".":{"x_min":0,"x_max":300,"ha":300,"o":"m 171 106 q 192 106 206 93 q 220 79 220 58 q 220 29 200 9 q 180 -12 152 -12 q 128 -12 115 1 q 102 15 102 38 q 102 66 122 86 q 142 106 171 106 z"},"p":{"x_min":0,"x_max":600,"ha":600,"o":"m 289 483 l 252 327 q 289 384 325 417 q 362 450 401 467 q 439 483 477 483 q 541 483 582 438 q 623 394 623 315 q 623 230 581 152 q 540 74 472 31 q 404 -12 333 -12 q 251 -12 195 41 l 160 -103 q 155 -126 155 -141 q 155 -152 161 -160 q 167 -168 179 -172 q 192 -177 217 -177 l 247 -177 l 238 -218 l -35 -218 l -26 -177 q 9 -177 23 -174 q 42 -171 52 -162 q 62 -154 70 -137 q 76 -125 83 -96 l 195 402 l 105 402 l 115 443 q 184 448 252 483 z m 204 86 q 230 62 262 49 q 293 36 321 36 q 368 36 416 70 q 464 104 498 177 q 533 250 533 323 q 533 371 510 398 q 487 426 453 426 q 422 426 389 409 q 357 392 317 345 q 277 298 249 236 q 220 174 204 86 z"},"X":{"x_min":0,"x_max":700,"ha":700,"o":"m 178 681 l 434 681 l 424 640 l 401 640 q 368 640 359 634 q 350 628 350 614 q 350 606 358 586 l 362 576 l 444 411 l 608 581 q 628 602 632 608 q 636 615 636 622 q 636 631 629 635 q 621 640 593 640 l 568 640 l 578 681 l 812 681 l 803 640 q 766 640 744 630 q 723 620 688 585 l 472 367 l 608 110 q 627 73 637 62 q 647 51 662 46 q 676 42 708 41 l 698 0 l 442 0 l 452 41 l 472 41 q 500 41 510 46 q 523 53 523 68 q 523 81 514 99 l 510 107 l 408 310 l 198 93 q 177 72 177 61 q 177 51 186 46 q 195 41 228 41 l 246 41 l 237 0 l 2 0 l 11 41 q 47 42 65 50 q 95 65 123 93 l 382 353 l 256 591 q 244 614 234 623 q 225 632 211 636 q 198 640 168 640 z"},"*":{"x_min":0,"x_max":440,"ha":440,"o":"m 334 546 l 321 625 q 320 633 320 642 q 320 666 331 679 q 343 693 360 693 q 382 693 396 682 q 409 671 409 649 q 409 631 397 612 l 357 542 l 375 524 l 446 562 q 465 572 484 572 q 502 572 514 559 q 525 547 525 525 q 525 506 512 494 q 500 483 475 483 q 467 483 457 485 l 378 501 l 367 479 l 424 423 q 446 401 446 376 q 446 359 432 346 q 417 334 398 334 q 384 334 370 349 q 357 363 354 390 l 346 469 l 321 473 l 286 401 q 276 383 263 373 q 250 363 238 363 q 220 363 206 377 q 191 392 191 406 q 191 420 201 434 q 211 448 232 457 l 305 490 l 301 515 l 222 526 q 196 530 182 543 q 167 556 167 571 q 167 590 180 605 q 193 620 208 620 q 235 620 258 595 l 312 535 z"},"Y":{"x_min":0,"x_max":660,"ha":660,"o":"m 157 681 l 405 681 l 396 640 l 367 640 q 336 640 327 634 q 317 627 317 614 q 317 604 326 583 l 422 327 l 620 579 q 641 605 641 620 q 641 630 632 635 q 624 640 592 640 l 570 640 l 579 681 l 812 681 l 802 640 q 773 640 760 636 q 746 633 736 625 q 723 616 704 593 l 449 282 l 411 112 q 407 91 407 80 q 407 58 422 48 q 434 41 465 41 l 486 41 l 478 0 l 209 0 l 218 41 q 265 42 273 43 q 293 48 305 63 q 317 79 326 119 l 359 264 l 230 583 q 215 619 211 624 q 204 632 194 636 q 183 640 146 640 z"},"c":{"x_min":0,"x_max":480,"ha":480,"o":"m 488 134 l 517 104 q 389 -12 271 -12 q 216 -12 175 11 q 133 35 109 78 q 85 122 85 176 q 85 255 127 328 q 169 402 237 442 q 305 483 382 483 q 449 483 492 446 q 536 410 536 363 q 536 333 522 316 q 509 300 487 300 q 470 300 458 313 q 447 326 447 343 l 447 359 l 448 375 q 448 399 428 417 q 409 434 378 434 q 333 434 287 401 q 241 368 209 302 q 177 237 177 169 q 177 133 192 104 q 207 74 234 58 q 261 42 290 42 q 315 42 346 50 q 377 59 407 76 q 437 93 488 134 z"},"!":{"x_min":0,"x_max":320,"ha":320,"o":"m 213 163 l 174 163 l 233 603 q 238 638 242 649 q 249 667 265 680 q 282 693 301 693 q 324 693 338 679 q 353 666 353 645 q 353 635 351 625 q 349 619 341 593 z m 181 106 q 202 106 216 93 q 229 79 229 58 q 229 29 209 9 q 189 -12 162 -12 q 138 -12 125 1 q 112 15 112 38 q 112 66 132 86 q 152 106 181 106 z"},"/":{"x_min":0,"x_max":600,"ha":600,"o":"m 568 715 l 88 -121 l 22 -121 l 502 715 z"},"[":{"x_min":0,"x_max":260,"ha":260,"o":"m 249 710 l 395 710 l 383 662 l 306 662 l 112 -185 l 189 -185 l 179 -232 l 32 -232 z"},"6":{"x_min":0,"x_max":620,"ha":620,"o":"m 665 693 l 654 644 q 578 644 520 632 q 462 621 420 599 q 377 578 342 545 q 306 512 282 471 q 258 431 239 368 q 273 402 299 418 q 324 434 355 442 q 385 451 423 451 q 515 451 572 394 q 628 337 628 250 q 628 181 592 118 q 555 56 494 22 q 434 -12 354 -12 q 282 -12 233 16 q 184 44 155 98 q 126 151 126 225 q 126 369 208 495 q 278 604 393 652 q 492 693 665 693 z m 407 400 q 355 400 311 373 q 266 346 240 295 q 214 245 214 186 q 214 119 250 76 q 285 33 352 33 q 428 33 481 93 q 540 160 540 253 q 540 320 502 360 q 464 400 407 400 z"},"r":{"x_min":0,"x_max":400,"ha":400,"o":"m 292 483 l 256 330 q 285 382 318 417 q 352 452 387 470 q 412 483 438 483 q 464 483 480 468 q 497 453 497 432 q 497 413 483 399 q 470 384 455 384 q 444 384 426 391 q 407 398 396 398 q 354 398 309 338 q 247 256 208 88 l 188 0 l 107 0 l 198 402 l 107 402 l 117 442 q 163 448 193 457 q 224 466 256 483 z"},"2":{"x_min":0,"x_max":620,"ha":620,"o":"m 212 425 l 166 422 q 165 435 165 441 q 165 540 229 610 q 302 693 430 693 q 500 693 548 669 q 596 646 623 602 q 649 558 649 507 q 649 470 636 436 q 616 387 578 344 q 540 302 444 236 q 323 153 185 70 l 436 70 q 475 70 490 74 q 501 78 511 87 q 521 97 532 125 l 545 154 l 589 154 l 516 -23 l 484 -23 l 484 0 l 58 0 l 68 41 l 198 125 q 238 151 332 219 q 426 288 473 335 q 520 382 543 432 q 559 468 559 502 q 559 537 540 568 q 521 599 486 616 q 452 634 406 634 q 329 634 276 588 q 211 531 212 425 z"},"{":{"x_min":0,"x_max":360,"ha":360,"o":"m 292 -199 l 288 -218 q 251 -213 228 -201 q 190 -181 167 -145 q 144 -108 144 -65 q 144 -21 176 49 q 195 90 203 115 q 207 128 207 142 q 207 176 185 200 q 162 224 119 229 l 123 250 q 169 255 204 280 q 240 304 254 341 q 264 364 264 429 q 264 493 281 536 q 299 579 338 617 q 377 655 428 676 q 458 689 499 694 l 495 675 q 443 663 410 639 q 377 614 362 574 q 352 548 352 483 q 351 416 332 375 q 313 334 270 298 q 227 262 161 241 q 214 219 242 182 q 269 145 269 99 q 269 61 238 -6 q 219 -48 210 -76 q 206 -90 206 -105 q 206 -140 226 -163 q 246 -187 292 -199 z"},"9":{"x_min":0,"x_max":620,"ha":620,"o":"m 126 -12 l 138 38 q 214 37 271 49 q 329 60 372 82 q 415 103 450 136 q 485 169 510 209 q 534 250 552 313 q 519 279 493 263 q 467 247 437 239 q 407 230 369 230 q 276 230 220 287 q 163 344 163 431 q 163 500 200 562 q 236 625 297 659 q 358 693 438 693 q 509 693 558 665 q 607 636 636 583 q 665 530 665 456 q 665 312 584 186 q 514 77 399 29 q 300 -12 126 -12 z m 385 281 q 436 281 481 308 q 526 335 552 386 q 578 437 578 495 q 578 562 542 605 q 506 647 440 647 q 364 647 311 588 q 252 521 252 428 q 252 361 290 321 q 328 281 385 281 z"}," ":{"x_min":0,"x_max":300,"ha":300,"o":""},"I":{"x_min":0,"x_max":320,"ha":320,"o":"m 179 681 l 448 681 l 439 640 l 423 640 q 387 640 372 634 q 357 627 348 614 q 339 601 331 563 l 230 120 q 223 89 223 78 q 223 59 239 48 q 250 41 281 41 l 304 41 l 293 0 l 25 0 l 34 41 l 54 41 q 86 41 101 48 q 116 54 125 67 q 133 79 142 114 l 245 568 q 250 591 250 602 q 250 615 244 624 q 238 632 228 636 q 217 640 188 640 l 171 640 z"},"H":{"x_min":0,"x_max":800,"ha":800,"o":"m 194 681 l 463 681 l 453 640 l 432 640 q 397 640 384 634 q 371 628 362 615 q 352 598 344 563 l 302 376 l 668 376 l 712 569 q 719 599 719 605 q 719 616 711 625 q 704 635 692 638 q 685 640 638 640 l 648 681 l 917 681 l 907 640 l 884 640 q 853 640 838 633 q 824 626 815 614 q 807 602 798 563 l 694 110 q 690 90 690 79 q 690 59 706 48 q 716 41 750 41 l 771 41 l 762 0 l 492 0 l 501 41 l 520 41 q 548 41 560 44 q 572 47 581 54 q 590 62 596 73 q 602 85 607 110 l 656 323 l 290 323 l 242 117 q 236 92 236 78 q 236 66 244 57 q 251 47 265 44 q 274 41 317 41 l 308 0 l 38 0 l 48 41 l 64 41 q 94 41 106 44 q 119 48 128 55 q 137 62 141 72 q 149 89 156 117 l 258 563 q 264 591 264 603 q 264 614 258 624 q 252 633 243 636 q 234 640 206 640 l 184 640 z"},"4":{"x_min":0,"x_max":620,"ha":620,"o":"m 601 681 l 511 283 l 638 283 l 625 225 l 497 225 l 447 0 l 368 0 l 419 225 l 93 225 l 112 307 l 524 681 z m 433 283 l 502 592 l 161 283 z"},"~":{"x_min":0,"x_max":600,"ha":600,"o":"m 549 411 l 591 363 q 576 325 557 303 q 538 282 514 271 q 491 259 464 259 q 445 259 425 267 q 415 270 365 295 l 300 327 q 288 332 275 332 q 252 332 238 315 q 223 298 194 244 l 148 292 q 167 331 187 351 q 207 372 229 383 q 252 394 275 394 q 292 394 312 387 q 331 381 383 354 q 430 331 442 326 q 454 321 461 321 q 484 321 504 341 q 518 355 549 411 z"},"D":{"x_min":0,"x_max":740,"ha":740,"o":"m 195 681 l 468 681 q 583 681 653 648 q 712 621 750 557 q 789 493 789 412 q 789 345 766 278 q 743 210 702 155 q 662 100 614 68 q 565 35 502 20 q 419 0 324 0 l 40 0 l 49 41 q 96 42 104 43 q 115 45 124 53 q 137 63 143 75 q 150 88 158 124 l 258 567 q 264 591 264 602 q 264 614 258 624 q 251 633 242 636 q 233 640 204 640 l 186 640 z m 359 626 l 238 95 q 234 78 234 71 q 234 61 242 57 q 249 52 275 52 l 314 52 q 381 52 444 64 q 479 71 514 90 q 549 109 581 142 q 613 175 638 221 q 664 267 677 316 q 690 365 690 415 q 690 485 662 531 q 634 578 585 602 q 536 626 445 626 z"},"^":{"x_min":0,"x_max":600,"ha":600,"o":"m 190 291 l 121 291 l 336 693 l 402 693 l 619 291 l 549 291 l 370 614 z"},"0":{"x_min":0,"x_max":620,"ha":620,"o":"m 460 693 q 522 693 571 659 q 620 626 640 572 q 660 518 660 458 q 660 331 606 213 q 551 96 476 42 q 401 -12 316 -12 q 229 -12 173 51 q 117 114 117 224 q 117 355 172 473 q 227 590 307 641 q 387 693 460 693 z m 456 641 q 413 641 369 614 q 325 587 291 530 q 257 472 229 379 q 200 287 200 196 q 200 157 213 120 q 226 83 255 60 q 284 38 321 38 q 384 38 437 88 q 489 138 527 240 q 573 363 573 485 q 573 561 540 601 q 507 641 456 641 z"},"F":{"x_min":0,"x_max":620,"ha":620,"o":"m 191 681 l 678 681 l 735 502 l 690 487 q 670 541 643 572 q 616 602 583 614 q 550 625 479 625 l 354 625 l 294 365 l 370 365 q 417 365 440 372 q 464 379 480 394 q 497 409 506 433 q 510 442 520 481 l 568 481 l 504 204 l 457 204 l 461 219 q 465 239 465 252 q 465 274 455 289 q 445 304 427 311 q 408 317 362 317 l 284 317 l 238 113 q 233 93 233 81 q 233 62 246 51 q 259 41 294 41 l 314 41 l 305 0 l 37 0 l 46 41 l 66 41 q 100 41 113 47 q 126 53 135 67 q 145 81 152 113 l 255 567 q 260 591 260 602 q 260 620 245 632 q 234 640 206 640 l 181 640 z"},"`":{"x_min":0,"x_max":340,"ha":340,"o":"m 388 535 l 276 579 q 211 605 211 643 q 211 661 223 673 q 234 686 251 686 q 265 686 276 679 q 298 666 333 631 l 401 563 z"},"k":{"x_min":0,"x_max":600,"ha":600,"o":"m 337 716 l 230 243 q 280 328 335 382 q 390 436 441 459 q 493 483 543 483 q 592 483 615 466 q 639 450 639 426 q 639 409 627 397 q 615 385 599 385 q 587 385 579 388 q 571 391 548 407 q 520 427 497 427 q 470 427 435 409 q 414 398 372 363 l 469 119 q 488 71 503 57 q 518 42 535 42 q 552 42 570 54 q 588 65 621 103 l 652 76 q 612 27 580 10 q 547 -8 513 -8 q 487 -8 467 1 q 447 10 434 27 q 412 55 398 89 l 315 299 q 265 237 236 174 q 194 83 174 0 l 97 0 l 239 634 l 148 634 l 158 675 q 232 683 299 716 z"},"u":{"x_min":0,"x_max":620,"ha":620,"o":"m 519 471 l 599 471 l 519 118 q 514 94 514 71 q 514 56 522 48 q 531 39 543 39 q 558 39 575 50 q 605 70 632 103 l 663 76 q 624 29 591 10 q 557 -8 522 -8 q 482 -8 458 14 q 435 36 435 68 q 435 88 443 132 q 421 95 400 73 q 360 31 315 10 q 270 -12 229 -12 q 197 -12 173 0 q 148 12 135 34 q 121 56 121 79 q 121 102 130 144 l 187 401 l 97 401 l 106 442 q 144 446 173 454 q 203 462 249 483 l 285 483 l 205 125 q 200 102 200 91 q 200 68 213 54 q 227 41 247 41 q 292 41 340 78 q 401 126 438 201 q 476 277 494 358 z"},"]":{"x_min":0,"x_max":260,"ha":260,"o":"m 107 -232 l -38 -232 l -27 -184 l 50 -184 l 245 663 l 167 663 l 177 710 l 324 710 z"},"U":{"x_min":0,"x_max":720,"ha":720,"o":"m 163 681 l 431 681 l 422 640 l 399 640 q 368 640 355 634 q 342 628 333 614 q 323 600 316 569 l 241 240 q 233 206 233 179 q 233 143 252 112 q 271 82 309 64 q 346 46 394 46 q 454 46 504 74 q 554 103 580 151 q 606 199 620 261 l 691 569 q 697 595 697 605 q 697 617 691 625 q 685 634 674 637 q 667 640 636 640 l 617 640 l 626 681 l 864 681 l 855 640 l 832 640 q 802 640 788 634 q 774 627 765 614 q 755 601 749 569 l 673 240 q 662 191 650 164 q 627 110 585 69 q 544 28 491 8 q 438 -12 374 -12 q 265 -12 206 44 q 146 100 146 166 q 146 205 155 243 l 228 565 q 233 589 233 602 q 233 614 227 624 q 221 633 211 636 q 201 640 170 640 l 155 640 z"},"o":{"x_min":0,"x_max":540,"ha":540,"o":"m 368 483 q 451 483 504 429 q 558 375 558 292 q 558 209 520 136 q 481 63 420 26 q 358 -12 283 -12 q 221 -12 179 11 q 138 34 112 81 q 86 128 86 183 q 86 262 126 334 q 166 407 229 445 q 292 483 368 483 z m 363 436 q 316 436 275 406 q 234 376 205 311 q 176 246 176 173 q 176 114 204 74 q 232 34 285 34 q 330 34 369 63 q 409 93 439 160 q 469 228 469 296 q 469 338 454 371 q 440 404 416 420 q 392 436 363 436 z"},"N":{"x_min":0,"x_max":720,"ha":720,"o":"m 192 681 l 400 681 l 585 150 l 681 573 q 686 594 686 603 q 686 622 671 631 q 661 637 628 637 l 607 637 l 616 681 l 854 681 l 845 637 l 826 637 q 792 637 777 631 q 762 625 754 613 q 746 601 737 565 l 607 0 l 551 0 l 329 631 l 210 110 q 206 92 206 80 q 206 68 212 58 q 218 49 229 45 q 239 41 269 41 l 286 41 l 276 0 l 38 0 l 46 41 l 67 41 q 101 41 115 47 q 128 54 138 69 q 147 84 156 123 l 257 565 q 262 586 262 601 q 262 621 248 630 q 238 637 207 637 l 183 637 z"},"+":{"x_min":0,"x_max":600,"ha":600,"o":"m 607 371 l 607 311 l 399 311 l 399 103 l 339 103 l 339 311 l 131 311 l 131 371 l 339 371 l 339 579 l 399 579 l 399 371 z"},"G":{"x_min":0,"x_max":760,"ha":760,"o":"m 770 678 l 776 468 l 729 463 q 710 547 656 593 q 603 639 527 639 q 450 639 381 594 q 312 548 267 460 q 222 372 222 274 q 222 203 246 152 q 271 101 315 72 q 360 43 409 43 q 450 43 494 56 q 539 68 571 87 q 595 102 608 120 q 620 138 629 176 l 643 237 q 647 257 647 267 q 647 277 641 286 q 635 295 625 299 q 615 303 587 303 l 556 303 l 565 344 l 837 344 l 829 303 l 808 303 q 781 303 768 296 q 754 290 746 276 q 737 262 729 224 l 676 0 l 629 0 l 620 61 q 582 27 524 8 q 467 -12 401 -12 q 317 -12 259 23 q 193 61 156 127 q 118 192 118 274 q 118 385 174 483 q 230 581 325 637 q 420 693 529 693 q 584 693 625 678 q 666 664 705 630 l 733 678 z"},"q":{"x_min":0,"x_max":560,"ha":560,"o":"m 595 471 l 466 -103 q 460 -129 460 -141 q 460 -151 465 -158 q 473 -168 483 -173 q 494 -177 519 -177 l 539 -177 l 530 -218 l 255 -218 l 264 -177 l 288 -177 q 327 -177 343 -170 q 359 -164 369 -150 q 378 -137 387 -98 l 439 130 q 399 67 351 33 q 288 -12 222 -12 q 158 -12 118 34 q 78 81 78 162 q 78 245 119 322 q 161 399 226 441 q 291 483 361 483 q 406 483 444 467 q 481 452 511 420 l 533 471 z m 495 380 q 474 404 440 418 q 406 433 376 433 q 329 433 281 398 q 233 364 200 294 q 167 223 167 146 q 167 96 189 68 q 212 41 244 41 q 285 41 324 67 q 378 105 423 178 q 467 251 487 344 z"},"d":{"x_min":0,"x_max":640,"ha":640,"o":"m 669 716 l 536 118 q 527 83 527 72 q 527 58 536 49 q 545 40 558 40 q 569 40 580 44 q 590 48 604 59 q 610 64 647 102 l 677 75 q 640 34 622 21 q 604 7 580 0 q 557 -8 534 -8 q 509 -8 490 2 q 471 12 460 31 q 449 50 449 71 q 449 88 459 132 q 422 77 388 47 q 354 17 317 2 q 281 -12 242 -12 q 195 -12 164 8 q 132 27 112 67 q 92 108 92 161 q 92 245 134 322 q 175 398 242 441 q 309 483 381 483 q 424 483 459 469 q 495 456 525 426 l 573 634 l 482 634 l 491 675 q 526 679 566 691 q 606 703 631 716 z m 516 381 q 491 405 457 419 q 422 433 391 433 q 342 433 295 399 q 248 365 215 294 q 181 223 181 146 q 181 97 205 69 q 228 41 262 41 q 303 41 345 70 q 404 111 444 180 q 484 249 516 381 z"},"1":{"x_min":0,"x_max":620,"ha":620,"o":"m 526 681 l 396 109 q 391 89 391 80 q 391 68 397 58 q 404 49 415 45 q 426 41 455 41 l 496 41 l 487 0 l 170 0 l 180 41 l 217 41 q 263 41 278 47 q 292 52 302 67 q 312 82 320 120 l 425 580 l 302 580 l 312 622 q 354 629 405 646 q 455 663 490 681 z"},"5":{"x_min":0,"x_max":620,"ha":620,"o":"m 292 681 l 598 681 q 623 681 626 682 q 633 684 637 688 q 640 690 643 703 l 680 703 l 659 606 l 324 606 l 275 437 q 321 445 361 445 q 473 445 536 401 q 617 344 617 244 q 617 151 550 80 q 466 -12 325 -12 q 257 -12 208 10 q 158 31 131 67 q 104 103 104 136 q 104 159 117 173 q 131 188 150 188 q 164 188 174 180 q 184 173 190 161 q 193 155 198 130 q 204 103 208 94 q 214 77 229 64 q 243 51 268 42 q 293 34 325 34 q 413 34 471 90 q 530 147 530 229 q 530 298 481 339 q 432 380 339 380 q 278 380 202 360 z"}}}
